<svg width="65" height="37" viewBox="0 0 65 37" fill="none" xmlns="http://www.w3.org/2000/svg">
<path d="M62.6514 19.6447C62.1144 21.3158 61.0865 22.7368 58.8384 25.2179L57.5061 26.6815C56.9922 27.2499 56.7223 27.5768 56.4553 27.9377C55.3068 29.5037 50.6353 31.9421 46.9515 33.3006C45.7825 33.7117 44.5798 34.0217 43.3567 34.2271L41.5679 34.5397L36.974 35.3213C34.3669 35.7874 32.0068 35.7334 28.2655 35.2815L24.622 34.8211C24.2659 34.7813 24.019 34.7614 23.6716 34.733H23.5768C21.8283 34.5994 20.4845 34.1901 18.2651 33.2295L16.6486 32.5219C15.9681 32.2377 15.4024 32.0103 14.854 31.8341L14.5669 31.7488C11.8192 30.9247 6.10254 26.7384 4.34535 24.3312L4.13288 24.0299C3.21409 22.6885 2.59965 21.7563 2.01392 19.838V19.0422L2.30104 18.1185C2.85806 16.5242 3.8314 15.1401 5.90156 12.8125L7.60994 10.9197C8.04636 10.428 8.29042 10.1296 8.53447 9.78289C9.68296 8.21126 14.3545 5.76144 18.0354 4.40011C19.0828 4.02908 20.1593 3.74392 21.254 3.54751L22.2388 3.36278L28.01 2.38512C30.7262 1.8963 33.1782 1.97587 37.1979 2.48743L40.3333 2.88816C40.6893 2.92795 40.9363 2.94784 41.2837 2.97626H41.3784C43.0237 3.10131 44.3071 3.47361 46.3026 4.32054L48.3125 5.19588C48.9863 5.4927 49.6765 5.75174 50.3797 5.97175C53.1246 6.80162 58.8412 11.0021 60.5956 13.4178L60.7994 13.7276C61.7153 15.0747 62.1805 16.1604 62.7691 18.093L62.9557 18.7267L62.6514 19.6447Z" fill="white"/>
<path d="M23.5509 3.29495L24.1252 3.03064C26.6938 1.6588 29.5676 0.942893 32.4862 0.94744C34.6241 0.947156 36.7442 1.33225 38.7426 2.08425L39.1101 2.17235C41.298 2.65833 43.6093 4.82679 45.2115 6.15117C46.3427 7.08336 47.4223 8.94488 48.1717 10.4142C48.2636 10.5904 48.3555 10.7723 48.4416 10.9542C48.634 11.3464 48.7948 11.6931 48.9182 11.9574C49.2174 12.6367 49.4465 13.3443 49.6016 14.069C49.8482 15.0163 50.0145 15.982 50.0983 16.9565C50.1635 17.4567 50.2275 17.9882 50.2907 18.5509C50.641 21.6942 48.8292 25.2637 48.3354 26.5228C47.8415 27.7818 45.5819 30.5272 45.223 31.033C44.8641 31.5389 41.0913 33.9802 40.7438 34.2872C40.3964 34.5941 37.0802 35.6542 36.549 35.8048C36.0178 35.9554 31.7569 36.2879 31.1482 36.2879C30.5395 36.2879 25.914 34.8925 25.512 34.6964C25.11 34.5003 22.5087 33.085 21.9804 32.8264C21.4521 32.5677 19.1666 30.2259 18.8967 29.8962C18.6268 29.5666 16.2953 26.0737 16.0829 25.6332C15.8704 25.1927 15.2789 23.226 15.0435 22.7173C14.808 22.2086 14.6674 18.9715 14.6674 17.8376C14.68 16.761 14.8531 15.6924 15.1813 14.6659C15.4828 13.6712 15.8474 11.75 17.128 9.66959C17.5934 8.93436 18.1105 8.23267 18.6756 7.56934C19.133 7.00122 19.6248 6.46124 20.1485 5.95223C21.3028 4.77848 22.5374 3.74967 23.5509 3.29495Z" fill="#00D54B"/>
<path d="M41.2894 22.0405L41.1946 22.2508C41.0552 22.5732 40.897 22.8873 40.7209 23.1915C40.5658 23.4757 40.4337 23.7599 40.2873 24.0214C39.7733 25.0815 38.3693 26.0108 37.4907 26.6645C36.6121 27.3181 34.7659 27.7132 34.0194 27.8638C33.2729 28.0144 32.0957 27.9633 30.4189 27.77C28.7421 27.5768 27.094 26.224 26.4968 25.8232C25.8996 25.4225 24.7367 23.9447 24.5099 23.6974C24.2831 23.4502 23.4734 21.2362 23.3471 21.0316C23.2207 20.827 23.0599 18.9967 23.0599 18.7068C23.0599 18.4169 23.3786 16.2058 23.4504 15.8932C23.7084 15.3142 24.0038 14.7522 24.3348 14.2108C24.4065 14.0772 24.4841 13.9436 24.5616 13.8129L24.6391 13.6935C24.7913 13.4377 24.909 13.2502 24.9492 13.2018L25.0985 13.0313C25.3807 12.6585 25.6918 12.3078 26.0288 11.9826C26.1723 11.8206 26.2901 11.6984 26.3417 11.6217C26.6549 11.3555 26.9922 11.1186 27.3496 10.914C28.2872 10.29 29.3308 9.83848 30.4304 9.58111C30.5535 9.53545 30.6791 9.49655 30.8065 9.46458C31.0649 9.41627 32.156 9.33953 32.4489 9.28269C32.7901 9.2762 33.1311 9.30766 33.4653 9.37648C33.8779 9.4143 34.2876 9.47982 34.6913 9.57258C36.1571 9.90333 37.5209 10.5789 38.6669 11.5422C39.813 12.5054 40.7076 13.7279 41.275 15.106C41.3927 15.3453 41.4887 15.5945 41.5621 15.8506C41.9809 17.2009 42.0792 18.6286 41.8492 20.0227C41.8492 20.0767 41.8492 20.1335 41.8291 20.1875C41.7356 20.8267 41.5539 21.4501 41.2894 22.0405Z" fill="black"/>
<path d="M27.7342 10.6071C27.9998 10.7198 28.2473 10.8701 28.4693 11.0533L28.5554 11.13C28.8261 11.3721 29.0499 11.661 29.2158 11.9826C29.2997 12.1239 29.3634 12.2759 29.4053 12.4345V12.4998C29.5419 12.976 29.5537 13.4787 29.4398 13.9606V13.9606L29.4742 13.7731C29.4648 13.8516 29.4504 13.9294 29.4311 14.0061C29.3478 14.3347 29.209 14.647 29.0206 14.9298C29.0099 14.9462 29.0003 14.9633 28.9918 14.9809C28.8311 15.3134 28.3889 15.6033 28.1133 15.8136C27.9652 15.9103 27.8037 15.985 27.6338 16.0353C27.0733 16.2556 26.4582 16.3012 25.8708 16.166L25.7847 16.1433L25.8852 16.1604C25.7177 16.1374 25.5549 16.0885 25.4028 16.0154C24.85 15.7898 24.3787 15.4046 24.0505 14.9099C24.043 14.8986 24.0344 14.8881 24.0246 14.8786C24.0055 14.8509 23.9892 14.8214 23.9758 14.7905C23.8353 14.5554 23.729 14.3018 23.66 14.0374V14.0374C23.6484 14.0082 23.6407 13.9776 23.637 13.9464C23.538 13.5152 23.538 13.0675 23.637 12.6363L23.6715 12.5027L23.6887 12.4203C23.7084 12.3886 23.7326 12.3599 23.7605 12.335C23.9305 11.8555 24.2229 11.4277 24.6093 11.093C24.9956 10.7584 25.4629 10.5283 25.9656 10.4252L26.0374 10.4053L26.29 10.3797H26.3647C26.4479 10.3797 26.5197 10.3655 26.5542 10.357C26.6825 10.3576 26.8104 10.371 26.936 10.3968C27.0329 10.4085 27.1288 10.4265 27.2232 10.4508H27.2691L27.3552 10.4678C27.4742 10.4961 27.5898 10.5371 27.6998 10.59L27.7342 10.6071Z" fill="white"/>
<path d="M0.50354 19.0422V19.4173C0.974421 21.2447 1.17828 22.2252 1.84153 23.1944C4.10693 26.511 6.13115 28.904 8.37645 30.2568L11.2965 31.9165L11.9884 32.2973C14.3141 33.5706 16.2206 34.4289 18.0726 34.9546C18.6596 35.1236 19.2571 35.2546 19.8614 35.3468L20.6366 35.469L23.2752 35.9294C27.7658 36.7195 30.5969 36.998 34.0596 36.782C38.8746 36.478 43.0867 35.5628 48.2922 33.94C51.8152 32.8459 57.4199 28.9722 60.0872 26.0421C61.0261 25.0104 61.7841 24.2516 62.3842 23.1262L62.769 22.4128C63.1307 21.6767 64.0323 19.9317 63.9864 20.0397C64.0984 19.7839 64.1816 19.7783 64.2735 19.531L64.5003 19.0393L64.4171 18.7153C63.9433 16.8822 63.4035 15.5266 62.7403 14.5546C60.4777 11.2295 58.4535 8.82513 56.2111 7.46664L54.0089 6.21047C53.5121 5.92627 53.0298 5.64207 52.7139 5.48007L52.6048 5.42039C50.282 4.14432 48.3755 3.28035 46.5264 2.75458C45.934 2.58451 45.3306 2.45442 44.7204 2.36522L43.9452 2.24017L41.3094 1.77976C36.8332 0.986842 34.0021 0.705482 30.5423 0.924317C25.7301 1.22841 21.5209 2.14638 16.3154 3.76633C12.7953 4.86904 7.1935 8.75976 4.52326 11.7012C3.52888 12.7946 2.69652 14.0223 2.05113 15.3476L1.93628 15.5891C1.56302 16.4019 0.965808 17.8855 0.945709 17.9395C0.833731 18.1896 0.730367 18.4482 0.635616 18.6955L0.50354 19.0422ZM62.4589 19.6447C61.922 21.3158 60.8941 22.7368 58.6459 25.2179L57.3136 26.6815C56.9425 27.0829 56.5927 27.5032 56.2656 27.9405C55.1172 29.5065 50.4428 31.9449 46.759 33.3034C45.5898 33.7136 44.3871 34.0235 43.1642 34.2299L41.3755 34.5397L36.7815 35.3241C34.1773 35.7902 31.8171 35.7362 28.0731 35.2843L24.4381 34.8239C24.0821 34.7813 23.838 34.7614 23.4906 34.733H23.393C21.6444 34.5994 20.3035 34.1873 18.0841 33.2267L16.4676 32.519C15.7842 32.2348 15.2186 32.0103 14.6702 31.8341L14.3974 31.7488C11.6525 30.9218 5.93303 26.7355 4.17584 24.3283L3.96624 24.0441C3.04745 22.6999 2.43013 21.7705 1.8444 19.8493V19.0422L2.13153 18.1185C2.64835 16.5185 3.61882 15.1344 5.68898 12.8068L7.39736 10.9169C7.83378 10.4252 8.08071 10.1239 8.32476 9.78004C9.47325 8.20841 14.1419 5.76143 17.8228 4.39726C18.8707 4.02754 19.9471 3.74241 21.0414 3.54466L22.0377 3.37414L27.8089 2.38511C30.528 1.89913 32.9771 1.97871 36.9968 2.48743L40.1552 2.88815C40.5112 2.92794 40.7553 2.95068 41.1027 2.97625H41.2003C42.8427 3.10414 44.129 3.47645 46.1245 4.32337L48.1343 5.19871C48.8078 5.49565 49.498 5.75376 50.2016 5.97174C52.9465 6.80161 58.6602 11.0021 60.4146 13.4207L60.627 13.7219C61.5458 15.069 62.011 16.1518 62.5967 18.0844L62.7833 18.721L62.4589 19.6447Z" fill="black"/>
</svg>
